<svg width="291" height="16" viewBox="0 0 291 16" fill="none" xmlns="http://www.w3.org/2000/svg">
<path d="M3 6.18182C3 5.56061 3.15152 4.99432 3.45455 4.48295C3.75758 3.97159 4.16477 3.56439 4.67614 3.26136C5.1875 2.95833 5.75379 2.80682 6.375 2.80682C6.91288 2.80682 7.40909 2.92235 7.86364 3.15341C8.32197 3.38447 8.70076 3.70076 9 4.10227C9.29924 4.5 9.48485 4.95076 9.55682 5.45455H8.18182C8.10606 5.06439 7.89583 4.74621 7.55114 4.5C7.20644 4.25 6.81439 4.125 6.375 4.125C5.99621 4.125 5.65152 4.2178 5.34091 4.40341C5.0303 4.58902 4.7822 4.83712 4.59659 5.14773C4.41098 5.45833 4.31818 5.80303 4.31818 6.18182C4.31818 6.56061 4.41098 6.9053 4.59659 7.21591C4.7822 7.52652 5.0303 7.77462 5.34091 7.96023C5.65152 8.14583 5.99621 8.23864 6.375 8.23864C6.81439 8.23864 7.18561 8.11553 7.48864 7.86932C7.79545 7.61932 7.98864 7.29924 8.06818 6.90909H9.44318C9.37121 7.41288 9.19508 7.86553 8.91477 8.26705C8.63447 8.66477 8.27462 8.97917 7.83523 9.21023C7.39962 9.44129 6.91288 9.55682 6.375 9.55682C5.75379 9.55682 5.1875 9.4053 4.67614 9.10227C4.16477 8.79924 3.75758 8.39205 3.45455 7.88068C3.15152 7.36932 3 6.80303 3 6.18182ZM6.31818 12.1818C5.49242 12.1818 4.71591 12.0265 3.98864 11.7159C3.26515 11.4053 2.62689 10.9754 2.07386 10.4261C1.52462 9.87311 1.0928 9.23485 0.778409 8.51136C0.467803 7.78788 0.314394 7.01136 0.318182 6.18182C0.32197 5.35227 0.479167 4.57576 0.789773 3.85227C1.10417 3.12879 1.53598 2.49242 2.08523 1.94318C2.63447 1.39015 3.27083 0.958333 3.99432 0.647727C4.7178 0.337121 5.49242 0.181818 6.31818 0.181818C7.14773 0.181818 7.92424 0.337121 8.64773 0.647727C9.375 0.958333 10.0114 1.39015 10.5568 1.94318C11.1061 2.49242 11.536 3.12879 11.8466 3.85227C12.1572 4.57576 12.3144 5.35227 12.3182 6.18182C12.322 7.01136 12.1686 7.78788 11.858 8.51136C11.5473 9.23485 11.1174 9.87311 10.5682 10.4261C10.0189 10.9754 9.38068 11.4053 8.65341 11.7159C7.92614 12.0265 7.14773 12.1818 6.31818 12.1818ZM6.31818 10.8636C6.96591 10.8636 7.57386 10.7424 8.14205 10.5C8.71023 10.2576 9.20833 9.92235 9.63636 9.49432C10.0644 9.06629 10.3996 8.57008 10.642 8.00568C10.8845 7.4375 11.0038 6.83144 11 6.1875C10.9962 5.53977 10.8731 4.93182 10.6307 4.36364C10.3883 3.79545 10.053 3.29735 9.625 2.86932C9.19697 2.44129 8.70076 2.10606 8.13636 1.86364C7.57197 1.62121 6.96591 1.5 6.31818 1.5C5.67424 1.5 5.07008 1.62121 4.50568 1.86364C3.94129 2.10606 3.44508 2.44318 3.01705 2.875C2.58902 3.30303 2.25189 3.80114 2.00568 4.36932C1.76326 4.93371 1.64015 5.53977 1.63636 6.1875C1.63258 6.82765 1.75189 7.43182 1.99432 8C2.23674 8.56439 2.57197 9.06061 3 9.48864C3.43182 9.91667 3.92992 10.2538 4.49432 10.5C5.0625 10.7424 5.67045 10.8636 6.31818 10.8636ZM19.3452 12V10.9773L23.1861 6.77273C23.6368 6.2803 24.008 5.85227 24.2997 5.48864C24.5914 5.12121 24.8073 4.77652 24.9474 4.45455C25.0914 4.12879 25.1634 3.78788 25.1634 3.43182C25.1634 3.02273 25.0649 2.66856 24.8679 2.36932C24.6747 2.07008 24.4096 1.83901 24.0724 1.67614C23.7353 1.51326 23.3565 1.43182 22.9361 1.43182C22.4891 1.43182 22.099 1.52462 21.7656 1.71023C21.4361 1.89205 21.1804 2.14773 20.9986 2.47727C20.8205 2.80682 20.7315 3.19318 20.7315 3.63636H19.3906C19.3906 2.95455 19.5478 2.35606 19.8622 1.84091C20.1766 1.32576 20.6046 0.924242 21.1463 0.636363C21.6918 0.348484 22.3035 0.204545 22.9815 0.204545C23.6634 0.204545 24.2675 0.348484 24.794 0.636363C25.3205 0.924242 25.7334 1.3125 26.0327 1.80114C26.3319 2.28977 26.4815 2.83333 26.4815 3.43182C26.4815 3.85985 26.4039 4.27841 26.2486 4.6875C26.0971 5.0928 25.8319 5.54545 25.4531 6.04545C25.0781 6.54167 24.5573 7.14773 23.8906 7.86364L21.277 10.6591V10.75H26.6861V12H19.3452ZM32.8281 12.1591C31.9721 12.1591 31.2429 11.9261 30.6406 11.4602C30.0384 10.9905 29.5781 10.3106 29.2599 9.42045C28.9418 8.52652 28.7827 7.44697 28.7827 6.18182C28.7827 4.92424 28.9418 3.85038 29.2599 2.96023C29.5819 2.06629 30.044 1.38447 30.6463 0.914772C31.2524 0.441287 31.9796 0.204545 32.8281 0.204545C33.6766 0.204545 34.402 0.441287 35.0043 0.914772C35.6103 1.38447 36.0724 2.06629 36.3906 2.96023C36.7126 3.85038 36.8736 4.92424 36.8736 6.18182C36.8736 7.44697 36.7145 8.52652 36.3963 9.42045C36.0781 10.3106 35.6179 10.9905 35.0156 11.4602C34.4134 11.9261 33.6842 12.1591 32.8281 12.1591ZM32.8281 10.9091C33.6766 10.9091 34.3357 10.5 34.8054 9.68182C35.2751 8.86364 35.5099 7.69697 35.5099 6.18182C35.5099 5.17424 35.402 4.31629 35.1861 3.60795C34.974 2.89962 34.6671 2.35985 34.2656 1.98864C33.8679 1.61742 33.3887 1.43182 32.8281 1.43182C31.9872 1.43182 31.33 1.84659 30.8565 2.67614C30.383 3.50189 30.1463 4.67045 30.1463 6.18182C30.1463 7.18939 30.2524 8.04545 30.4645 8.75C30.6766 9.45455 30.9815 9.99053 31.3793 10.358C31.7808 10.7254 32.2637 10.9091 32.8281 10.9091ZM39.0838 12L44.2884 1.70455V1.61364H38.2884V0.363636H45.7429V1.68182L40.5611 12H39.0838ZM48.5369 12L53.7415 1.70455V1.61364H47.7415V0.363636H55.196V1.68182L50.0142 12H48.5369ZM69.6548 0.363636H71.0639V8.06818C71.0639 8.86364 70.8764 9.57386 70.5014 10.1989C70.1302 10.8201 69.6056 11.3106 68.9276 11.6705C68.2495 12.0265 67.4541 12.2045 66.5412 12.2045C65.6283 12.2045 64.8329 12.0265 64.1548 11.6705C63.4768 11.3106 62.9503 10.8201 62.5753 10.1989C62.2041 9.57386 62.0185 8.86364 62.0185 8.06818V0.363636H63.4276V7.95455C63.4276 8.52273 63.5526 9.02841 63.8026 9.47159C64.0526 9.91098 64.4086 10.2576 64.8707 10.5114C65.3366 10.7614 65.8935 10.8864 66.5412 10.8864C67.1889 10.8864 67.7457 10.7614 68.2116 10.5114C68.6776 10.2576 69.0336 9.91098 69.2798 9.47159C69.5298 9.02841 69.6548 8.52273 69.6548 7.95455V0.363636ZM75.0369 6.75V12H73.696V3.27273H74.9915V4.63636H75.1051C75.3097 4.19318 75.6203 3.83712 76.0369 3.56818C76.4536 3.29545 76.9915 3.15909 77.6506 3.15909C78.2415 3.15909 78.7585 3.2803 79.2017 3.52273C79.6449 3.76136 79.9896 4.125 80.2358 4.61364C80.482 5.09848 80.6051 5.71212 80.6051 6.45455V12H79.2642V6.54545C79.2642 5.85985 79.0862 5.32576 78.7301 4.94318C78.3741 4.55682 77.8854 4.36364 77.2642 4.36364C76.8362 4.36364 76.4536 4.45644 76.1165 4.64205C75.7831 4.82765 75.5199 5.09848 75.3267 5.45455C75.1335 5.81061 75.0369 6.24242 75.0369 6.75ZM86.8509 3.27273V4.40909H82.3281V3.27273H86.8509ZM83.6463 1.18182H84.9872V9.5C84.9872 9.87879 85.0421 10.1629 85.152 10.3523C85.2656 10.5379 85.4096 10.6629 85.5838 10.7273C85.7618 10.7879 85.9493 10.8182 86.1463 10.8182C86.294 10.8182 86.4152 10.8106 86.5099 10.7955C86.6046 10.7765 86.6804 10.7614 86.7372 10.75L87.0099 11.9545C86.919 11.9886 86.7921 12.0227 86.6293 12.0568C86.4664 12.0947 86.2599 12.1136 86.0099 12.1136C85.6312 12.1136 85.2599 12.0322 84.8963 11.8693C84.5365 11.7064 84.2372 11.4583 83.9986 11.125C83.7637 10.7917 83.6463 10.3712 83.6463 9.86364V1.18182ZM88.8679 12V3.27273H90.2088V12H88.8679ZM89.5497 1.81818C89.2884 1.81818 89.063 1.72917 88.8736 1.55114C88.688 1.37311 88.5952 1.15909 88.5952 0.909091C88.5952 0.659091 88.688 0.445076 88.8736 0.267045C89.063 0.089015 89.2884 0 89.5497 0C89.8111 0 90.0346 0.089015 90.2202 0.267045C90.4096 0.445076 90.5043 0.659091 90.5043 0.909091C90.5043 1.15909 90.4096 1.37311 90.2202 1.55114C90.0346 1.72917 89.8111 1.81818 89.5497 1.81818ZM96.4602 3.27273V4.40909H91.9375V3.27273H96.4602ZM93.2557 1.18182H94.5966V9.5C94.5966 9.87879 94.6515 10.1629 94.7614 10.3523C94.875 10.5379 95.0189 10.6629 95.1932 10.7273C95.3712 10.7879 95.5587 10.8182 95.7557 10.8182C95.9034 10.8182 96.0246 10.8106 96.1193 10.7955C96.214 10.7765 96.2898 10.7614 96.3466 10.75L96.6193 11.9545C96.5284 11.9886 96.4015 12.0227 96.2386 12.0568C96.0758 12.0947 95.8693 12.1136 95.6193 12.1136C95.2405 12.1136 94.8693 12.0322 94.5057 11.8693C94.1458 11.7064 93.8466 11.4583 93.608 11.125C93.3731 10.7917 93.2557 10.3712 93.2557 9.86364V1.18182ZM100.006 0.363636V12H98.6648V0.363636H100.006ZM106.121 12.1818C105.28 12.1818 104.554 11.9962 103.945 11.625C103.339 11.25 102.871 10.7273 102.541 10.0568C102.215 9.38258 102.053 8.59848 102.053 7.70455C102.053 6.81061 102.215 6.02273 102.541 5.34091C102.871 4.6553 103.329 4.12121 103.916 3.73864C104.507 3.35227 105.196 3.15909 105.984 3.15909C106.439 3.15909 106.888 3.23485 107.331 3.38636C107.774 3.53788 108.178 3.78409 108.541 4.125C108.905 4.46212 109.195 4.90909 109.411 5.46591C109.626 6.02273 109.734 6.70833 109.734 7.52273V8.09091H103.007V6.93182H108.371C108.371 6.43939 108.272 6 108.075 5.61364C107.882 5.22727 107.606 4.92235 107.246 4.69886C106.89 4.47538 106.469 4.36364 105.984 4.36364C105.45 4.36364 104.988 4.49621 104.598 4.76136C104.212 5.02273 103.914 5.36364 103.706 5.78409C103.498 6.20455 103.393 6.6553 103.393 7.13636V7.90909C103.393 8.56818 103.507 9.12689 103.734 9.58523C103.965 10.0398 104.286 10.3864 104.695 10.625C105.104 10.8598 105.579 10.9773 106.121 10.9773C106.473 10.9773 106.791 10.928 107.075 10.8295C107.363 10.7273 107.611 10.5758 107.82 10.375C108.028 10.1705 108.189 9.91667 108.303 9.61364L109.598 9.97727C109.462 10.4167 109.232 10.803 108.911 11.1364C108.589 11.4659 108.191 11.7235 107.717 11.9091C107.244 12.0909 106.712 12.1818 106.121 12.1818ZM115.07 12.1818C114.342 12.1818 113.7 11.9981 113.143 11.6307C112.587 11.2595 112.151 10.7367 111.837 10.0625C111.522 9.38447 111.365 8.58333 111.365 7.65909C111.365 6.74242 111.522 5.94697 111.837 5.27273C112.151 4.59848 112.589 4.07765 113.149 3.71023C113.71 3.3428 114.357 3.15909 115.092 3.15909C115.661 3.15909 116.109 3.25379 116.439 3.44318C116.772 3.62879 117.026 3.84091 117.2 4.07955C117.378 4.31439 117.517 4.50758 117.615 4.65909H117.729V0.363636H119.07V12H117.774V10.6591H117.615C117.517 10.8182 117.376 11.0189 117.195 11.2614C117.013 11.5 116.753 11.714 116.416 11.9034C116.079 12.089 115.63 12.1818 115.07 12.1818ZM115.251 10.9773C115.789 10.9773 116.244 10.8371 116.615 10.5568C116.986 10.2727 117.268 9.88068 117.462 9.38068C117.655 8.87689 117.751 8.29545 117.751 7.63636C117.751 6.98485 117.657 6.41477 117.467 5.92614C117.278 5.43371 116.998 5.05114 116.626 4.77841C116.255 4.50189 115.797 4.36364 115.251 4.36364C114.683 4.36364 114.21 4.50947 113.831 4.80114C113.456 5.08902 113.174 5.48106 112.984 5.97727C112.799 6.4697 112.706 7.02273 112.706 7.63636C112.706 8.25758 112.801 8.82197 112.99 9.32955C113.183 9.83333 113.467 10.2348 113.842 10.5341C114.221 10.8295 114.691 10.9773 115.251 10.9773ZM134.03 0.363636H135.439V8.06818C135.439 8.86364 135.251 9.57386 134.876 10.1989C134.505 10.8201 133.981 11.3106 133.303 11.6705C132.625 12.0265 131.829 12.2045 130.916 12.2045C130.003 12.2045 129.208 12.0265 128.53 11.6705C127.852 11.3106 127.325 10.8201 126.95 10.1989C126.579 9.57386 126.393 8.86364 126.393 8.06818V0.363636H127.803V7.95455C127.803 8.52273 127.928 9.02841 128.178 9.47159C128.428 9.91098 128.784 10.2576 129.246 10.5114C129.712 10.7614 130.268 10.8864 130.916 10.8864C131.564 10.8864 132.121 10.7614 132.587 10.5114C133.053 10.2576 133.409 9.91098 133.655 9.47159C133.905 9.02841 134.03 8.52273 134.03 7.95455V0.363636ZM139.662 0.363636V12H138.253V0.363636H139.662ZM143.283 12.0909C143.002 12.0909 142.762 11.9905 142.561 11.7898C142.36 11.589 142.26 11.3485 142.26 11.0682C142.26 10.7879 142.36 10.5473 142.561 10.3466C142.762 10.1458 143.002 10.0455 143.283 10.0455C143.563 10.0455 143.804 10.1458 144.004 10.3466C144.205 10.5473 144.305 10.7879 144.305 11.0682C144.305 11.2538 144.258 11.4242 144.163 11.5795C144.072 11.7348 143.949 11.8598 143.794 11.9545C143.643 12.0455 143.472 12.0909 143.283 12.0909ZM151.871 12H150.393L154.666 0.363636H156.121L160.393 12H158.916L155.439 2.20455H155.348L151.871 12ZM152.416 7.45455H158.371V8.70455H152.416V7.45455ZM163.365 0.363636V12H162.024V0.363636H163.365ZM167.162 0.363636V12H165.821V0.363636H167.162ZM174.118 12V3.27273H175.413V4.59091H175.504C175.663 4.15909 175.951 3.80871 176.368 3.53977C176.785 3.27083 177.254 3.13636 177.777 3.13636C177.875 3.13636 177.999 3.13826 178.146 3.14205C178.294 3.14583 178.406 3.15152 178.482 3.15909V4.52273C178.436 4.51136 178.332 4.49432 178.169 4.47159C178.01 4.44508 177.841 4.43182 177.663 4.43182C177.239 4.43182 176.86 4.52083 176.527 4.69886C176.197 4.87311 175.936 5.11553 175.743 5.42614C175.554 5.73295 175.459 6.08333 175.459 6.47727V12H174.118ZM180.071 12V3.27273H181.412V12H180.071ZM180.753 1.81818C180.491 1.81818 180.266 1.72917 180.077 1.55114C179.891 1.37311 179.798 1.15909 179.798 0.909091C179.798 0.659091 179.891 0.445076 180.077 0.267045C180.266 0.089015 180.491 0 180.753 0C181.014 0 181.238 0.089015 181.423 0.267045C181.613 0.445076 181.707 0.659091 181.707 0.909091C181.707 1.15909 181.613 1.37311 181.423 1.55114C181.238 1.72917 181.014 1.81818 180.753 1.81818ZM187.391 15.4545C186.743 15.4545 186.186 15.3712 185.72 15.2045C185.254 15.0417 184.866 14.8258 184.555 14.5568C184.249 14.2917 184.004 14.0076 183.822 13.7045L184.891 12.9545C185.012 13.1136 185.165 13.2955 185.351 13.5C185.536 13.7083 185.79 13.8883 186.112 14.0398C186.438 14.1951 186.864 14.2727 187.391 14.2727C188.095 14.2727 188.677 14.1023 189.135 13.7614C189.593 13.4205 189.822 12.8864 189.822 12.1591V10.3864H189.709C189.61 10.5455 189.47 10.7424 189.288 10.9773C189.11 11.2083 188.853 11.4148 188.516 11.5966C188.182 11.7746 187.732 11.8636 187.163 11.8636C186.459 11.8636 185.826 11.697 185.266 11.3636C184.709 11.0303 184.268 10.5455 183.942 9.90909C183.62 9.27273 183.459 8.5 183.459 7.59091C183.459 6.69697 183.616 5.91856 183.93 5.25568C184.245 4.58901 184.682 4.07386 185.243 3.71023C185.804 3.3428 186.451 3.15909 187.186 3.15909C187.754 3.15909 188.205 3.25379 188.538 3.44318C188.875 3.62879 189.133 3.84091 189.311 4.07955C189.493 4.31439 189.633 4.50758 189.732 4.65909H189.868V3.27273H191.163V12.25C191.163 13 190.993 13.6098 190.652 14.0795C190.315 14.553 189.86 14.8996 189.288 15.1193C188.72 15.3428 188.088 15.4545 187.391 15.4545ZM187.345 10.6591C187.883 10.6591 188.338 10.536 188.709 10.2898C189.08 10.0436 189.362 9.68939 189.555 9.22727C189.749 8.76515 189.845 8.21212 189.845 7.56818C189.845 6.93939 189.75 6.38447 189.561 5.90341C189.372 5.42235 189.091 5.04545 188.72 4.77273C188.349 4.5 187.891 4.36364 187.345 4.36364C186.777 4.36364 186.304 4.50758 185.925 4.79545C185.55 5.08333 185.268 5.4697 185.078 5.95455C184.893 6.43939 184.8 6.97727 184.8 7.56818C184.8 8.17424 184.894 8.71023 185.084 9.17614C185.277 9.63826 185.561 10.0019 185.936 10.267C186.315 10.5284 186.785 10.6591 187.345 10.6591ZM194.959 6.75V12H193.618V0.363636H194.959V4.63636H195.072C195.277 4.18561 195.584 3.82765 195.993 3.5625C196.406 3.29356 196.955 3.15909 197.641 3.15909C198.235 3.15909 198.756 3.27841 199.203 3.51705C199.65 3.75189 199.997 4.11364 200.243 4.60227C200.493 5.08712 200.618 5.70455 200.618 6.45455V12H199.277V6.54545C199.277 5.85227 199.097 5.31629 198.737 4.9375C198.381 4.55492 197.887 4.36364 197.254 4.36364C196.815 4.36364 196.421 4.45644 196.072 4.64205C195.728 4.82765 195.455 5.09848 195.254 5.45455C195.057 5.81061 194.959 6.24242 194.959 6.75ZM206.866 3.27273V4.40909H202.344V3.27273H206.866ZM203.662 1.18182H205.003V9.5C205.003 9.87879 205.058 10.1629 205.168 10.3523C205.281 10.5379 205.425 10.6629 205.599 10.7273C205.777 10.7879 205.965 10.8182 206.162 10.8182C206.31 10.8182 206.431 10.8106 206.526 10.7955C206.62 10.7765 206.696 10.7614 206.753 10.75L207.026 11.9545C206.935 11.9886 206.808 12.0227 206.645 12.0568C206.482 12.0947 206.276 12.1136 206.026 12.1136C205.647 12.1136 205.276 12.0322 204.912 11.8693C204.552 11.7064 204.253 11.4583 204.014 11.125C203.779 10.7917 203.662 10.3712 203.662 9.86364V1.18182ZM214.909 5.22727L213.705 5.56818C213.629 5.36742 213.517 5.17235 213.369 4.98295C213.225 4.78977 213.028 4.63068 212.778 4.50568C212.528 4.38068 212.208 4.31818 211.818 4.31818C211.284 4.31818 210.839 4.44129 210.483 4.6875C210.131 4.92992 209.955 5.23864 209.955 5.61364C209.955 5.94697 210.076 6.21023 210.318 6.40341C210.561 6.59659 210.939 6.75758 211.455 6.88636L212.75 7.20455C213.53 7.39394 214.112 7.68371 214.494 8.07386C214.877 8.46023 215.068 8.95833 215.068 9.56818C215.068 10.0682 214.924 10.5152 214.636 10.9091C214.352 11.303 213.955 11.6136 213.443 11.8409C212.932 12.0682 212.337 12.1818 211.659 12.1818C210.769 12.1818 210.032 11.9886 209.449 11.6023C208.866 11.2159 208.496 10.6515 208.341 9.90909L209.614 9.59091C209.735 10.0606 209.964 10.4129 210.301 10.6477C210.642 10.8826 211.087 11 211.636 11C212.261 11 212.758 10.8674 213.125 10.6023C213.496 10.3333 213.682 10.0114 213.682 9.63636C213.682 9.33333 213.576 9.07955 213.364 8.875C213.152 8.66667 212.826 8.51136 212.386 8.40909L210.932 8.06818C210.133 7.87879 209.545 7.58523 209.17 7.1875C208.799 6.78598 208.614 6.28409 208.614 5.68182C208.614 5.18939 208.752 4.75379 209.028 4.375C209.309 3.99621 209.689 3.69886 210.17 3.48295C210.655 3.26705 211.205 3.15909 211.818 3.15909C212.682 3.15909 213.36 3.34848 213.852 3.72727C214.348 4.10606 214.701 4.60606 214.909 5.22727ZM221.587 12V3.27273H222.882V4.59091H222.973C223.132 4.15909 223.42 3.80871 223.837 3.53977C224.253 3.27083 224.723 3.13636 225.246 3.13636C225.344 3.13636 225.467 3.13826 225.615 3.14205C225.763 3.14583 225.875 3.15152 225.95 3.15909V4.52273C225.905 4.51136 225.801 4.49432 225.638 4.47159C225.479 4.44508 225.31 4.43182 225.132 4.43182C224.708 4.43182 224.329 4.52083 223.996 4.69886C223.666 4.87311 223.405 5.11553 223.212 5.42614C223.022 5.73295 222.928 6.08333 222.928 6.47727V12H221.587ZM230.933 12.1818C230.092 12.1818 229.367 11.9962 228.757 11.625C228.151 11.25 227.683 10.7273 227.354 10.0568C227.028 9.38258 226.865 8.59848 226.865 7.70455C226.865 6.81061 227.028 6.02273 227.354 5.34091C227.683 4.6553 228.142 4.12121 228.729 3.73864C229.32 3.35227 230.009 3.15909 230.797 3.15909C231.251 3.15909 231.7 3.23485 232.143 3.38636C232.587 3.53788 232.99 3.78409 233.354 4.125C233.717 4.46212 234.007 4.90909 234.223 5.46591C234.439 6.02273 234.547 6.70833 234.547 7.52273V8.09091H227.82V6.93182H233.183C233.183 6.43939 233.085 6 232.888 5.61364C232.695 5.22727 232.418 4.92235 232.058 4.69886C231.702 4.47538 231.282 4.36364 230.797 4.36364C230.263 4.36364 229.801 4.49621 229.411 4.76136C229.024 5.02273 228.727 5.36364 228.518 5.78409C228.31 6.20455 228.206 6.6553 228.206 7.13636V7.90909C228.206 8.56818 228.32 9.12689 228.547 9.58523C228.778 10.0398 229.098 10.3864 229.507 10.625C229.916 10.8598 230.392 10.9773 230.933 10.9773C231.286 10.9773 231.604 10.928 231.888 10.8295C232.176 10.7273 232.424 10.5758 232.632 10.375C232.84 10.1705 233.001 9.91667 233.115 9.61364L234.411 9.97727C234.274 10.4167 234.045 10.803 233.723 11.1364C233.401 11.4659 233.003 11.7235 232.53 11.9091C232.056 12.0909 231.524 12.1818 230.933 12.1818ZM242.768 5.22727L241.564 5.56818C241.488 5.36742 241.376 5.17235 241.229 4.98295C241.085 4.78977 240.888 4.63068 240.638 4.50568C240.388 4.38068 240.068 4.31818 239.678 4.31818C239.143 4.31818 238.698 4.44129 238.342 4.6875C237.99 4.92992 237.814 5.23864 237.814 5.61364C237.814 5.94697 237.935 6.21023 238.178 6.40341C238.42 6.59659 238.799 6.75758 239.314 6.88636L240.609 7.20455C241.39 7.39394 241.971 7.68371 242.354 8.07386C242.736 8.46023 242.928 8.95833 242.928 9.56818C242.928 10.0682 242.784 10.5152 242.496 10.9091C242.212 11.303 241.814 11.6136 241.303 11.8409C240.791 12.0682 240.196 12.1818 239.518 12.1818C238.628 12.1818 237.892 11.9886 237.308 11.6023C236.725 11.2159 236.356 10.6515 236.2 9.90909L237.473 9.59091C237.594 10.0606 237.823 10.4129 238.161 10.6477C238.501 10.8826 238.946 11 239.496 11C240.121 11 240.617 10.8674 240.984 10.6023C241.356 10.3333 241.541 10.0114 241.541 9.63636C241.541 9.33333 241.435 9.07955 241.223 8.875C241.011 8.66667 240.685 8.51136 240.246 8.40909L238.791 8.06818C237.992 7.87879 237.405 7.58523 237.03 7.1875C236.659 6.78598 236.473 6.28409 236.473 5.68182C236.473 5.18939 236.611 4.75379 236.888 4.375C237.168 3.99621 237.549 3.69886 238.03 3.48295C238.515 3.26705 239.064 3.15909 239.678 3.15909C240.541 3.15909 241.219 3.34848 241.712 3.72727C242.208 4.10606 242.56 4.60606 242.768 5.22727ZM248.605 12.1818C247.764 12.1818 247.039 11.9962 246.429 11.625C245.823 11.25 245.355 10.7273 245.026 10.0568C244.7 9.38258 244.537 8.59848 244.537 7.70455C244.537 6.81061 244.7 6.02273 245.026 5.34091C245.355 4.6553 245.813 4.12121 246.401 3.73864C246.991 3.35227 247.681 3.15909 248.469 3.15909C248.923 3.15909 249.372 3.23485 249.815 3.38636C250.259 3.53788 250.662 3.78409 251.026 4.125C251.389 4.46212 251.679 4.90909 251.895 5.46591C252.111 6.02273 252.219 6.70833 252.219 7.52273V8.09091H245.491V6.93182H250.855C250.855 6.43939 250.757 6 250.56 5.61364C250.366 5.22727 250.09 4.92235 249.73 4.69886C249.374 4.47538 248.954 4.36364 248.469 4.36364C247.935 4.36364 247.473 4.49621 247.082 4.76136C246.696 5.02273 246.399 5.36364 246.19 5.78409C245.982 6.20455 245.878 6.6553 245.878 7.13636V7.90909C245.878 8.56818 245.991 9.12689 246.219 9.58523C246.45 10.0398 246.77 10.3864 247.179 10.625C247.588 10.8598 248.063 10.9773 248.605 10.9773C248.957 10.9773 249.276 10.928 249.56 10.8295C249.848 10.7273 250.096 10.5758 250.304 10.375C250.512 10.1705 250.673 9.91667 250.787 9.61364L252.082 9.97727C251.946 10.4167 251.717 10.803 251.395 11.1364C251.073 11.4659 250.675 11.7235 250.202 11.9091C249.728 12.0909 249.196 12.1818 248.605 12.1818ZM254.259 12V3.27273H255.554V4.59091H255.645C255.804 4.15909 256.092 3.80871 256.509 3.53977C256.925 3.27083 257.395 3.13636 257.918 3.13636C258.016 3.13636 258.139 3.13826 258.287 3.14205C258.435 3.14583 258.546 3.15152 258.622 3.15909V4.52273C258.577 4.51136 258.473 4.49432 258.31 4.47159C258.151 4.44508 257.982 4.43182 257.804 4.43182C257.38 4.43182 257.001 4.52083 256.668 4.69886C256.338 4.87311 256.077 5.11553 255.884 5.42614C255.694 5.73295 255.599 6.08333 255.599 6.47727V12H254.259ZM267.614 3.27273L264.386 12H263.023L259.795 3.27273H261.25L263.659 10.2273H263.75L266.159 3.27273H267.614ZM272.73 12.1818C271.889 12.1818 271.164 11.9962 270.554 11.625C269.948 11.25 269.48 10.7273 269.151 10.0568C268.825 9.38258 268.662 8.59848 268.662 7.70455C268.662 6.81061 268.825 6.02273 269.151 5.34091C269.48 4.6553 269.938 4.12121 270.526 3.73864C271.116 3.35227 271.806 3.15909 272.594 3.15909C273.048 3.15909 273.497 3.23485 273.94 3.38636C274.384 3.53788 274.787 3.78409 275.151 4.125C275.514 4.46212 275.804 4.90909 276.02 5.46591C276.236 6.02273 276.344 6.70833 276.344 7.52273V8.09091H269.616V6.93182H274.98C274.98 6.43939 274.882 6 274.685 5.61364C274.491 5.22727 274.215 4.92235 273.855 4.69886C273.499 4.47538 273.079 4.36364 272.594 4.36364C272.06 4.36364 271.598 4.49621 271.207 4.76136C270.821 5.02273 270.524 5.36364 270.315 5.78409C270.107 6.20455 270.003 6.6553 270.003 7.13636V7.90909C270.003 8.56818 270.116 9.12689 270.344 9.58523C270.575 10.0398 270.895 10.3864 271.304 10.625C271.713 10.8598 272.188 10.9773 272.73 10.9773C273.082 10.9773 273.401 10.928 273.685 10.8295C273.973 10.7273 274.221 10.5758 274.429 10.375C274.637 10.1705 274.798 9.91667 274.912 9.61364L276.207 9.97727C276.071 10.4167 275.842 10.803 275.52 11.1364C275.198 11.4659 274.8 11.7235 274.327 11.9091C273.853 12.0909 273.321 12.1818 272.73 12.1818ZM281.679 12.1818C280.952 12.1818 280.31 11.9981 279.753 11.6307C279.196 11.2595 278.76 10.7367 278.446 10.0625C278.132 9.38447 277.974 8.58333 277.974 7.65909C277.974 6.74242 278.132 5.94697 278.446 5.27273C278.76 4.59848 279.198 4.07765 279.759 3.71023C280.319 3.3428 280.967 3.15909 281.702 3.15909C282.27 3.15909 282.719 3.25379 283.048 3.44318C283.382 3.62879 283.635 3.84091 283.81 4.07955C283.988 4.31439 284.126 4.50758 284.224 4.65909H284.338V0.363636H285.679V12H284.384V10.6591H284.224C284.126 10.8182 283.986 11.0189 283.804 11.2614C283.622 11.5 283.363 11.714 283.026 11.9034C282.688 12.089 282.24 12.1818 281.679 12.1818ZM281.861 10.9773C282.399 10.9773 282.853 10.8371 283.224 10.5568C283.596 10.2727 283.878 9.88068 284.071 9.38068C284.264 8.87689 284.361 8.29545 284.361 7.63636C284.361 6.98485 284.266 6.41477 284.077 5.92614C283.887 5.43371 283.607 5.05114 283.236 4.77841C282.865 4.50189 282.406 4.36364 281.861 4.36364C281.293 4.36364 280.819 4.50947 280.44 4.80114C280.065 5.08902 279.783 5.48106 279.594 5.97727C279.408 6.4697 279.315 7.02273 279.315 7.63636C279.315 8.25758 279.41 8.82197 279.599 9.32955C279.793 9.83333 280.077 10.2348 280.452 10.5341C280.83 10.8295 281.3 10.9773 281.861 10.9773ZM289.298 12.0909C289.018 12.0909 288.777 11.9905 288.577 11.7898C288.376 11.589 288.276 11.3485 288.276 11.0682C288.276 10.7879 288.376 10.5473 288.577 10.3466C288.777 10.1458 289.018 10.0455 289.298 10.0455C289.579 10.0455 289.819 10.1458 290.02 10.3466C290.221 10.5473 290.321 10.7879 290.321 11.0682C290.321 11.2538 290.274 11.4242 290.179 11.5795C290.088 11.7348 289.965 11.8598 289.81 11.9545C289.658 12.0455 289.488 12.0909 289.298 12.0909Z" fill="#667085"/>
</svg>
